<?xml version="1.0" encoding="iso-8859-1"?>
<!-- Generator: Adobe Illustrator 19.2.0, SVG Export Plug-In . SVG Version: 6.00 Build 0)  -->
<svg version="1.1" xmlns="http://www.w3.org/2000/svg" xmlns:xlink="http://www.w3.org/1999/xlink" x="0px" y="0px"
	 viewBox="0 0 942.268 942.268" style="enable-background:new 0 0 942.268 942.268;" fill="#FFFFFF" xml:space="preserve">
<g id="Layer_1">
	<g>
		<path d="M311.013,519.295c0,6.38,5.519,10.641,11.595,10.641c17.645,0,25.29-16.119,25.29-31.931v-8.219l-34.415,14.303
			C311.971,508.652,311.013,514.427,311.013,519.295z"/>
		<path d="M471.133,0C210.935,0,0,210.936,0,471.134c0,260.198,210.935,471.135,471.133,471.135
			c260.201,0,471.135-210.937,471.135-471.135C942.268,210.936,731.334,0,471.133,0z M214.004,565.216
			c-57.484,0-80.598-49.877-80.598-100.353c0-47.751,27.372-100.357,81.205-100.357c15.807,0,39.215,4.267,52.301,14.597
			l-16.721,30.414c-9.736-4.875-24.938-6.986-35.581-6.986c-26.156,0-35.888,43.168-35.888,63.546
			c0,23.71,5.163,60.821,36.482,60.821c11.572,0,26.158-4.562,35.891-10.946l19.764,30.107
			C256.27,558.214,232.548,565.216,214.004,565.216z M379.738,565.216c-15.831,0-24.643-10.339-26.45-24.026
			c-5.488,14.898-21.907,24.026-37.111,24.026c-29.799,0-46.526-14.909-46.526-45.311c0-10.653,5.472-22.812,10.646-32.233
			l66.6-26.764v-6.386c0-8.213-9.121-12.168-16.126-12.168c-13.988,0-25.694,5.481-36.636,13.987l-15.433-24.935
			c14.29-13.685,36.69-24.318,56.767-24.318c28.884,0,53.428,13.374,53.428,44.995v79.375c0,2.739-0.17,7.911,3.476,7.911
			c1.52,0,2.957-0.615,4.168-1.221l6.655,20.675C395.893,562.469,387.94,565.216,379.738,565.216z M468.83,562.78
			c-5.469,1.817-10.741,2.436-18.645,2.436c-27.371,0-36.288-20.986-36.288-40.756v-77.847l-14-3.339v-32.217h15v-15.365l42-10.811
			v26.176h24v36h-23v70.125c0,1.81,0.45,9.414,4.705,10.634c6.693,2.423,14.822-2.141,14.822-2.141l9.395,30.114
			C486.819,555.789,473.707,561.264,468.83,562.78z M550.947,565.216c-42.572,0-66.59-38.923-66.59-77.856
			c0-39.835,23.405-80.272,67.507-80.272c15.809,0,34.66,7.592,46.226,18.546l-19.778,25.84c-6.074-4.861-18.236-8.2-26.146-8.2
			c-17.631,0-23.718,27.976-23.718,41.652c0,13.994,6.396,44.402,24.636,44.402c10.931,0,24.021-6.385,32.233-13.084l15.806,28.291
			C588.343,555.789,567.985,565.216,550.947,565.216z M733.897,561.057h-44v-108.05c0-6.096-1.933-9.433-7.705-9.433
			c-13.673,0-20.295,7.294-29.295,12.174v105.309h-44V360.118l44-10.813v73.286c10-6.687,22.562-15.502,34.728-15.502
			c39.224,0,46.272,23.715,46.272,45.918V561.057z M777.5,565.216c-13.386,0-26.152-10.04-26.152-24.026
			c0-14.594,13.379-25.538,27.682-25.538c13.373,0,26.144,9.724,26.144,24.019C805.173,554.277,791.491,565.216,777.5,565.216z"/>
	</g>
</g>
</svg>
