<?xml version="1.0" encoding="iso-8859-1"?>
<!-- Generator: Adobe Illustrator 19.2.0, SVG Export Plug-In . SVG Version: 6.00 Build 0)  -->
<svg version="1.1" id="Layer_1" xmlns="http://www.w3.org/2000/svg" xmlns:xlink="http://www.w3.org/1999/xlink" x="0px" y="0px"
	 viewBox="0 0 212.496 211.707" style="enable-background:new 0 0 212.496 211.707;" xml:space="preserve">
<g>
	<path style="fill:#FFFFFF;" d="M106.248,0C47.569,0,0,47.392,0,105.854c0,58.461,47.569,105.854,106.248,105.854
		s106.248-47.392,106.248-105.854C212.496,47.392,164.927,0,106.248,0z M59.856,149.437L59.856,149.437
		c-1,0.814-2.29,1.228-3.831,1.228c-2.772,0-4.364-1.835-5.044-2.618l-0.072-0.082l1.439-1.642l0.092,0.124
		c0.773,1.038,2.173,2.147,3.785,2.147c1.718,0,2.872-0.984,2.872-2.45c0-1.456-1.509-2.058-2.32-2.38l-0.087-0.035
		c-0.771-0.3-1.865-0.732-2.451-1.024c-0.625-0.292-1.153-0.667-1.568-1.115c-0.685-0.712-1.032-1.637-1.032-2.749
		c0-1.187,0.513-2.269,1.443-3.048c0.902-0.76,2.15-1.162,3.61-1.162c1.707,0,3.216,0.678,4.486,2.016l0.074,0.077l-1.288,1.666
		l-0.1-0.106c-1.02-1.079-2.094-1.604-3.283-1.604c-1.228,0-2.539,0.527-2.539,2.006c0,1.334,0.979,1.843,1.897,2.215l2.821,1.178
		c0.298,0.137,1.254,0.661,1.778,1.277c0.648,0.794,0.962,1.662,0.962,2.656C61.5,147.348,60.916,148.565,59.856,149.437z
		 M49.952,116.483c-12.897,0-18.083-11.19-18.083-22.515c0-10.713,6.141-22.516,18.219-22.516c3.546,0,8.798,0.957,11.734,3.275
		l-3.751,6.824c-2.184-1.094-5.595-1.567-7.983-1.567c-5.868,0-8.052,9.685-8.052,14.257c0,5.319,1.158,13.646,8.185,13.646
		c2.596,0,5.869-1.024,8.052-2.456l4.434,6.755C59.434,114.912,54.112,116.483,49.952,116.483z M77.508,136.878h-4.307v13.52h-2.403
		v-13.52H66.47v-2.048h11.039V136.878z M81.201,111.093c-1.231,3.343-4.915,5.39-8.326,5.39c-6.686,0-10.438-3.345-10.438-10.166
		c0-2.39,1.228-5.118,2.388-7.232l14.942-6.005v-1.433c0-1.843-2.046-2.73-3.618-2.73c-3.138,0-5.765,1.23-8.219,3.138l-3.462-5.594
		c3.206-3.07,8.232-5.456,12.736-5.456c6.48,0,11.987,3,11.987,10.095v17.808c0,0.615-0.038,1.775,0.78,1.775
		c0.341,0,0.663-0.138,0.935-0.274l1.493,4.639c-1.638,0.818-3.423,1.434-5.263,1.434C83.584,116.483,81.607,114.163,81.201,111.093
		z M94.9,144.013c0,2.008-0.209,3.501-1.25,4.741c-1.103,1.269-2.681,1.91-4.691,1.91c-2.034,0-3.612-0.643-4.69-1.909
		c-1.06-1.237-1.273-2.731-1.273-4.742v-9.183h2.425v8.982c0,1.153,0,2.46,0.685,3.365c0.629,0.854,1.616,1.305,2.853,1.305
		c1.232,0,2.192-0.439,2.854-1.306c0.685-0.904,0.685-2.211,0.685-3.364v-8.982H94.9V144.013z M94.799,107.339V89.874l-3.141-0.749
		v-7.228h3.365v-3.447l9.423-2.425v5.873h5.385v8.077h-5.16v15.733c0,0.406,0.101,2.112,1.056,2.386
		c1.502,0.544,3.325-0.48,3.325-0.48l2.108,6.756c0,0-2.942,1.228-4.036,1.569c-1.227,0.408-2.41,0.546-4.183,0.546
		C96.8,116.483,94.799,111.775,94.799,107.339z M112.543,148.366c-0.664,0.611-2.558,2.031-5.812,2.031h-4.743V134.83h4.743
		c3.253,0,5.148,1.42,5.812,2.031c1.102,1.014,2.416,2.835,2.416,5.753C114.959,145.531,113.646,147.353,112.543,148.366z
		 M123.658,150.398h-2.403V134.83h2.403V150.398z M110.607,99.016c0-8.937,5.251-18.01,15.146-18.01
		c3.547,0,7.776,1.703,10.371,4.161l-4.437,5.797c-1.363-1.091-4.091-1.84-5.866-1.84c-3.956,0-5.321,6.277-5.321,9.345
		c0,3.14,1.435,9.962,5.527,9.962c2.452,0,5.389-1.432,7.232-2.935l3.546,6.347c-2.867,2.525-7.434,4.64-11.257,4.64
		C115.996,116.483,110.607,107.75,110.607,99.016z M137.991,150.664c-4.652,0-8.028-3.376-8.028-8.028
		c0-4.651,3.376-8.027,8.028-8.027s8.028,3.376,8.028,8.027C146.019,147.288,142.643,150.664,137.991,150.664z M159.902,149.437
		L159.902,149.437c-1,0.814-2.29,1.228-3.831,1.228c-2.771,0-4.365-1.835-5.045-2.618l-0.072-0.082l1.439-1.642l0.092,0.124
		c0.773,1.038,2.173,2.147,3.785,2.147c1.718,0,2.872-0.984,2.872-2.45c0-1.456-1.509-2.058-2.32-2.38l-0.087-0.035
		c-0.771-0.3-1.865-0.732-2.451-1.024c-0.625-0.292-1.153-0.667-1.568-1.115c-0.685-0.712-1.032-1.637-1.032-2.749
		c0-1.187,0.513-2.269,1.443-3.048c0.902-0.76,2.15-1.162,3.61-1.162c1.707,0,3.216,0.678,4.486,2.016l0.074,0.077l-1.288,1.666
		l-0.1-0.106c-1.02-1.079-2.094-1.604-3.284-1.604c-1.227,0-2.539,0.527-2.539,2.006c0,1.334,0.979,1.843,1.897,2.215l2.821,1.178
		c0.297,0.137,1.253,0.661,1.778,1.277c0.648,0.795,0.962,1.663,0.962,2.656C161.546,147.348,160.962,148.565,159.902,149.437z
		 M166.593,115.55h-9.872V91.308c0-1.368-0.434-2.116-1.729-2.116c-3.068,0-4.553,1.637-6.573,2.731v23.627h-9.872V70.468
		l9.872-2.426v16.442c2.244-1.5,5.062-3.478,7.791-3.478c8.8,0,10.382,5.321,10.382,10.302V115.55z M176.376,116.483
		c-3.003,0-5.867-2.253-5.867-5.391c0-3.274,3.002-5.73,6.211-5.73c3,0,5.865,2.182,5.865,5.389
		C182.585,114.029,179.515,116.483,176.376,116.483z"/>
	<path style="fill:#FFFFFF;" d="M71.083,106.077c0,1.431,1.238,2.387,2.601,2.387c3.959,0,5.674-3.616,5.674-7.164v-1.844
		l-7.721,3.209C71.298,103.689,71.083,104.985,71.083,106.077z"/>
	<path style="fill:#FFFFFF;" d="M137.991,136.723c-3.286,0-5.58,2.413-5.58,5.869c0,3.455,2.294,5.868,5.58,5.868
		s5.581-2.413,5.581-5.868C143.572,139.136,141.277,136.723,137.991,136.723z"/>
	<path style="fill:#FFFFFF;" d="M106.732,136.923h-2.339v11.36h2.339c1.634,0,3.054-0.492,3.999-1.387
		c1.182-1.12,1.781-2.562,1.781-4.282c0-1.737-0.599-3.186-1.781-4.305C109.787,137.415,108.367,136.923,106.732,136.923z"/>
</g>
</svg>
