<?xml version="1.0" encoding="utf-8"?>
<!-- Generator: Adobe Illustrator 16.0.2, SVG Export Plug-In . SVG Version: 6.00 Build 0)  -->
<!DOCTYPE svg PUBLIC "-//W3C//DTD SVG 1.1//EN" "http://www.w3.org/Graphics/SVG/1.1/DTD/svg11.dtd">
<svg version="1.1" id="Слой_1" xmlns="http://www.w3.org/2000/svg" xmlns:xlink="http://www.w3.org/1999/xlink" x="0px" y="0px"
	 width="48px" height="48px" viewBox="0 0 48 48" enable-background="new 0 0 48 48" xml:space="preserve">
<path fill="#100A00" d="M12.176,33.982v3.73H0V10.287h4.095v23.696H12.176z"/>
<path fill="#C10E1A" d="M18.974,14.017v7.169h8.448v3.729h-8.448v9.067h10.533v3.73H15.282V10.287h13.931v3.73H18.974z"/>
<path fill="#100A00" d="M48.008,17.455v13.127c0,4.898-2.706,7.422-8.009,7.422c-4.568,0-7.53-2.559-7.53-7.422V17.455
	c0-4.935,2.852-7.459,7.971-7.459C45.118,9.996,48.008,12.555,48.008,17.455z M44.206,17.235c0-2.338-1.721-3.509-3.804-3.509
	c-2.157,0-4.132,0.842-4.132,3.913v12.943c0,2.305,1.606,3.658,3.729,3.658c2.157,0,4.207-0.623,4.207-3.512V17.235z"/>
</svg>
